PathFileType	4	(X/Y/Z)	Patient4_TMGait_0pt3_02_left_02.trc.trc
DataRate	CameraRate	NumFrames	NumMarkers	Units	OrigDataRate	OrigDataStartFrame	OrigNumFrames
48.275862068966	48.275862068966	4	33	mm	48.275862068966	36	       141
Frame#	Time	Sacral			L.Shoulder			Chest			R.Shoulder			Neck			R.ASIS			L.ASIS			R.Thigh.Superior			R.Thigh.Lateral			R.Thigh.Inferior			R.Patella			L.Thigh.Superior			L.Thigh.Lateral			L.Thigh.Inferior			L.Patella			L.Shank.Superior			L.Shank.Lateral			L.Shank.Inferior			R.Shank.Superior			R.Shank.Lateral			R.Shank.Inferior			R.Heel			R.Midfoot.Superior			R.Midfoot.Lateral			R.Toe			L.Heel			L.Midfoot.Lateral			L.Midfoot.Superior			L.Toe			L.Elbow			L.Wrist			R.Elbow			R.Wrist			
		X1	Y1	Z1	X2	Y2	Z2	X3	Y3	Z3	X4	Y4	Z4	X5	Y5	Z5	X6	Y6	Z6	X7	Y7	Z7	X8	Y8	Z8	X9	Y9	Z9	X10	Y10	Z10	X11	Y11	Z11	X12	Y12	Z12	X13	Y13	Z13	X14	Y14	Z14	X15	Y15	Z15	X16	Y16	Z16	X17	Y17	Z17	X18	Y18	Z18	X19	Y19	Z19	X20	Y20	Z20	X21	Y21	Z21	X22	Y22	Z22	X23	Y23	Z23	X24	Y24	Z24	X25	Y25	Z25	X26	Y26	Z26	X27	Y27	Z27	X28	Y28	Z28	X29	Y29	Z29	X30	Y30	Z30	X31	Y31	Z31	X32	Y32	Z32	X33	Y33	Z33	

36	3.845000000000	736.529694127056	1004.871511462584	538.918392743327	868.686008823251	1411.010465487417	299.459541108078	1008.537627034780	1351.667848428523	434.995923842335	970.443920884895	1444.528361797315	614.976687480701	891.258014450157	1484.445456207817	448.353168901218	976.989464064337	929.597294373157	616.866128958502	922.022220997641	953.513080787945	348.534037672046	965.777387263758	713.732028129619	590.346937504419	863.875346156365	619.444176966469	657.001367211933	917.969013192429	553.480070264754	572.679725270889	893.715883644882	461.527738026866	580.594167130393	1000.338903612561	762.814840165453	383.663474092255	930.892181411891	634.597786355729	321.976976847480	1029.522543077256	571.474854497777	382.496686930915	1040.404186151870	501.902429786608	388.210549949518	1021.689160796349	427.661938783364	378.908463851541	944.657128822804	304.631914554401	326.481915683760	1011.843088654752	198.354337014040	393.466934780000	836.140584133942	386.022363505483	590.244152006482	737.359985037244	309.821441954930	655.673150580103	745.517134771640	206.798321101806	594.357351235936	569.638573056155	72.831403933235	565.548577609298	745.616451828022	101.354358018030	606.295010183444	648.616510365938	53.132829732475	641.912436471422	854.647824304367	37.136080342852	640.120630724768	898.207612409104	37.780951580353	432.413537299505	973.393937355184	35.725810204043	352.478521685461	1055.895179405157	97.400344134336	380.480837643208	1184.248329059595	48.261065931105	353.961577722123	728.077472072409	1079.375134213437	242.433543514206	746.902301296830	820.056071668062	276.616568600413	1157.519430926949	1173.495546994781	739.006364234929	1371.163014208408	1269.557042199590	643.569007188695	
37	3.865714285714	737.217753407246	1006.221289560196	533.538659501648	871.156625823465	1412.252211215855	294.841200773210	1009.967533723583	1352.954023581936	431.478124611846	970.513992585950	1445.969816528412	611.033973489005	892.464844193665	1485.783531496568	443.944512453000	977.165465974351	930.927470537439	613.210147403528	923.942282840616	954.567161058354	344.544673096582	966.696126596465	715.102927730183	587.545194429008	865.073626349442	620.743413358874	654.297719298118	920.295833705040	554.321024135456	570.871133124673	896.295473227704	461.343576782577	579.983829808263	1000.615299599393	762.576661499269	379.797346605057	929.922756929661	634.773900005421	318.966270266338	1027.835085803412	570.941854253841	379.807902429511	1038.117388702010	501.379056339129	386.076816149975	1018.834058322965	427.193915256104	377.143096650588	940.933957172929	304.562221070844	325.163069578045	1006.824166107657	198.061639198603	392.928747437165	836.922691265500	386.901919341624	589.429261854258	736.313241516640	312.920768721254	654.541545745639	743.348231906369	209.072620598338	594.220231752516	565.184735055720	78.441043703420	565.642242223682	741.763199872261	102.190594508185	606.585768546589	643.622848686369	56.384347279295	641.944540526177	848.817895647386	36.831361779483	640.091957362196	892.098779399487	37.736770506284	432.332191953410	967.302928409191	35.789000325881	352.410031352146	1049.768487713881	97.381000795515	380.494173068007	1178.175236222527	48.330685423276	353.986956292484	733.923537529994	1079.067264905536	235.356485916639	762.364268497092	820.315212568428	266.942025853135	1155.823175879412	1172.777898054052	734.405132131669	1374.395204063889	1261.783227648631	641.865599733333	
38	3.886428571429	737.724025081494	1007.488417640538	528.061259541948	873.653428220979	1413.588612061292	290.393641338790	1011.255356627073	1354.308921170814	428.267262558073	970.226046892614	1447.398048943262	607.384880432992	893.532682129292	1487.157200565044	439.761543773757	977.166682884211	932.266745580939	609.583160450156	925.800669760506	955.633736940157	340.549994105574	967.869543685686	716.586780508172	584.738209087256	866.760641599259	621.959700043332	651.585789792953	923.314250856804	555.183807558183	569.096416869783	899.697901648220	461.068636635744	579.541655535030	1000.635932110515	762.168882320292	375.839652261049	928.548400712083	634.864094578440	315.918957309858	1025.659910692998	570.282301857267	377.103321465741	1035.302243771575	500.786317144004	383.925662946497	1015.522745758620	426.706864069120	375.349653632512	936.866291199870	304.405574038957	323.878514175986	1001.605101610008	197.767914513888	392.357501994434	838.459607274145	387.742605137687	588.728632323817	735.895415771873	316.170298997795	653.390454363256	741.734847478569	211.471470621049	594.127524419055	561.108498147567	84.605115697439	565.710620167482	738.235909603627	103.067535060773	606.958744257286	638.830893349529	59.975328147482	641.967459059051	842.943084035520	36.553058998498	640.047169036430	885.957467583434	37.682277884385	432.285020451416	961.154767478556	35.826251173621	352.350512302154	1043.600024137256	97.342863306475	380.472177325766	1172.058823438389	48.329864064161	353.943670629502	740.345419155015	1078.764066557144	228.011887398727	778.158127653664	820.894651975094	256.880806353772	1153.159040340067	1171.611810776399	730.307003846241	1376.977381590338	1252.440825840532	641.250147423672	
39	3.907142857143	738.049019591702	1008.630098603327	522.511369822680	876.117746221793	1414.982763780068	286.144194189717	1012.371064639897	1355.689902551521	425.350824190388	969.593294526707	1448.758529998361	604.032569307787	894.440957284829	1488.524448830094	435.821752788804	976.995813102104	933.571285902774	605.974143146658	927.579503172218	956.681937921539	336.550214071787	969.341625866334	718.149934717200	581.929960925741	868.999146000727	623.058985860663	648.875466296652	927.079231885631	556.049622530219	567.342828225180	903.972582775303	460.702323797629	579.231433120637	1000.470332794312	761.637849187331	371.867179484935	926.925513907074	634.885777994754	312.865734233768	1023.156591059671	569.540448830753	374.429517705812	1032.118873212900	500.138873419872	381.798489930834	1011.902958642017	426.200753516696	373.561260855345	932.580986851885	304.182137999184	322.621993262641	996.256676934507	197.460587911651	391.770703354829	840.821269780787	388.529291915699	588.125909942089	736.198338700134	319.578000919597	652.225307059806	740.736117274378	214.017189429177	594.081110457552	557.501805678797	91.417128023310	565.746325211102	735.051691106119	104.016815807091	607.400278877338	634.286928111843	63.990909698953	641.975275431853	837.006823297227	36.264312093592	639.994476576138	879.782088065735	37.626553690913	432.265373039414	954.955593304428	35.840423695074	352.301663666835	1037.406160071755	97.272136871835	380.431048959573	1165.909664644180	48.226452897081	353.857655726047	747.467871332284	1078.381894755655	220.459313438103	794.238405864461	821.677750827646	246.538689408653	1149.455242213311	1169.913777867894	726.747609468513	1378.664225158862	1241.327401675055	641.728072982947	
